<svg width="512" height="512" viewBox="0 0 512 512" fill="none" xmlns="http://www.w3.org/2000/svg">
  <!-- Purple to Cyan gradient background -->
  <defs>
    <linearGradient id="bgGradient" x1="0%" y1="0%" x2="100%" y2="100%">
      <stop offset="0%" style="stop-color:#9333ea;stop-opacity:1" />
      <stop offset="100%" style="stop-color:#06b6d4;stop-opacity:1" />
    </linearGradient>
    <linearGradient id="metalGradient" x1="0%" y1="0%" x2="0%" y2="100%">
      <stop offset="0%" style="stop-color:#cbd5e1;stop-opacity:1" />
      <stop offset="50%" style="stop-color:#94a3b8;stop-opacity:1" />
      <stop offset="100%" style="stop-color:#64748b;stop-opacity:1" />
    </linearGradient>
  </defs>

  <!-- Rounded rectangle background -->
  <rect width="512" height="512" rx="128" fill="url(#bgGradient)"/>

  <!-- Barbell -->
  <!-- Left weight plates -->
  <rect x="60" y="200" width="70" height="112" rx="8" fill="#1e293b" stroke="#0f172a" stroke-width="4"/>
  <rect x="68" y="208" width="54" height="96" rx="4" fill="#334155"/>
  <rect x="76" y="216" width="38" height="80" rx="2" fill="#475569"/>

  <!-- Left collar -->
  <rect x="135" y="235" width="20" height="42" rx="4" fill="#ef4444"/>
  <circle cx="145" cy="256" r="3" fill="#dc2626"/>

  <!-- Center bar -->
  <rect x="155" y="245" width="202" height="22" rx="11" fill="url(#metalGradient)"/>
  <rect x="155" y="248" width="202" height="8" rx="4" fill="#e2e8f0" opacity="0.3"/>

  <!-- Right collar -->
  <rect x="357" y="235" width="20" height="42" rx="4" fill="#ef4444"/>
  <circle cx="367" cy="256" r="3" fill="#dc2626"/>

  <!-- Right weight plates -->
  <rect x="382" y="200" width="70" height="112" rx="8" fill="#1e293b" stroke="#0f172a" stroke-width="4"/>
  <rect x="390" y="208" width="54" height="96" rx="4" fill="#334155"/>
  <rect x="398" y="216" width="38" height="80" rx="2" fill="#475569"/>

  <!-- Weight plate details (holes) -->
  <circle cx="95" cy="256" r="12" fill="#1e293b"/>
  <circle cx="417" cy="256" r="12" fill="#1e293b"/>

  <!-- Text "RL" for RepLog -->
  <text x="256" y="410" font-family="Arial, sans-serif" font-size="100" font-weight="bold" fill="white" text-anchor="middle">RL</text>
</svg>
